<svg width="24" height="25" viewBox="0 0 24 25" fill="none" xmlns="http://www.w3.org/2000/svg">
<path d="M10.4067 6.05986L4 12.4999L10.4067 18.9399C10.4645 19.0158 10.538 19.0785 10.6222 19.1236C10.7064 19.1687 10.7993 19.1952 10.8946 19.2013C10.9899 19.2074 11.0854 19.1929 11.1747 19.1589C11.2639 19.1248 11.3448 19.072 11.4118 19.004C11.4789 18.936 11.5305 18.8544 11.5633 18.7646C11.596 18.6749 11.6091 18.5792 11.6017 18.484C11.5943 18.3888 11.5664 18.2963 11.5201 18.2128C11.4738 18.1292 11.4101 18.0566 11.3333 17.9999L6.54 13.1665L19.2933 13.1665C19.4701 13.1665 19.6397 13.0963 19.7647 12.9713C19.8898 12.8462 19.96 12.6767 19.96 12.4999C19.96 12.3231 19.8898 12.1535 19.7647 12.0285C19.6397 11.9034 19.4701 11.8332 19.2933 11.8332L6.54 11.8332L11.3333 6.99986C11.458 6.87433 11.5277 6.70442 11.527 6.52751C11.5264 6.3506 11.4555 6.18118 11.33 6.05653C11.2045 5.93188 11.0346 5.8622 10.8576 5.86283C10.6807 5.86345 10.5113 5.93433 10.3867 6.05986L10.4067 6.05986Z" fill="black"/>
</svg>
