<svg width="220" height="32" viewBox="0 0 220 32" fill="none" xmlns="http://www.w3.org/2000/svg">
<path fill-rule="evenodd" clip-rule="evenodd" d="M106.673 20.5641L118.722 4.87223L112.377 0.000165462L102.635 12.6871L95.3586 7.70301L92.2729 5.58954L89.9572 8.52649L77.5176 24.3032L83.7997 29.2565L93.9236 16.4167L101.24 21.4282L104.366 23.5691L106.673 20.5641ZM68.4296 7.04058C69.1807 7.62854 69.6038 8.45265 69.6989 9.51292H76.4591C76.4401 7.67191 75.9694 6.0526 75.0472 4.65498C74.1249 3.25736 72.827 2.173 71.1536 1.40189C69.4897 0.621154 67.5263 0.230784 65.2634 0.230784C63.048 0.230784 61.0751 0.616335 59.3446 1.38744C57.6142 2.15854 56.2593 3.23326 55.2799 4.6116C54.3006 5.98995 53.8157 7.5948 53.8252 9.42617C53.8157 11.672 54.5383 13.4552 55.993 14.7757C57.4478 16.0866 59.4397 17.036 61.9688 17.6239L65.0209 18.3468C66.0858 18.5975 66.9606 18.8722 67.6452 19.171C68.3392 19.4601 68.8527 19.8071 69.1855 20.212C69.5182 20.6071 69.6894 21.0843 69.6989 21.6433C69.6894 22.2409 69.504 22.771 69.1427 23.2337C68.7814 23.6964 68.2632 24.0578 67.5881 24.3181C66.9225 24.5783 66.1144 24.7084 65.1636 24.7084C64.1272 24.7084 63.2144 24.5446 62.4252 24.2169C61.6456 23.8891 61.0323 23.4072 60.5854 22.771C60.1385 22.1349 59.8866 21.3397 59.8295 20.3854H53.0693C53.0978 22.6988 53.616 24.612 54.6239 26.1253C55.6317 27.6386 57.0437 28.7664 58.8597 29.5085C60.6758 30.2507 62.8056 30.6218 65.2491 30.6218C67.6832 30.6218 69.7607 30.2652 71.4816 29.5519C73.2121 28.8386 74.5385 27.8121 75.4608 26.4723C76.383 25.1325 76.8489 23.5277 76.8585 21.6578C76.8489 20.4722 76.6493 19.4023 76.2594 18.4481C75.8696 17.4938 75.2944 16.6504 74.5337 15.9179C73.7826 15.1853 72.8508 14.554 71.7384 14.0239C70.6354 13.4937 69.3614 13.0696 67.9161 12.7515L65.406 12.1732C64.7404 12.0286 64.1414 11.86 63.609 11.6672C63.0765 11.4744 62.6201 11.2527 62.2398 11.0021C61.869 10.7419 61.5838 10.4431 61.3841 10.1057C61.1939 9.76834 61.1084 9.37797 61.1274 8.93459C61.1369 8.39482 61.2938 7.9177 61.598 7.50323C61.9023 7.07913 62.3587 6.74659 62.9672 6.50562C63.5757 6.26465 64.3363 6.14417 65.2491 6.14417C66.6278 6.14417 67.6879 6.44297 68.4296 7.04058ZM13.378 0.635612H20.3379V21.1084C20.3284 23.0265 19.8767 24.7036 18.983 26.1398C18.0892 27.5663 16.8532 28.6748 15.2748 29.4652C13.706 30.2555 11.89 30.6507 9.82672 30.6507C8.00117 30.6507 6.34202 30.3278 4.84926 29.682C3.366 29.0362 2.18225 28.0338 1.298 26.6747C0.423261 25.3157 -0.00935468 23.5759 0.000153355 21.4554H7.03135C7.05988 22.2168 7.2025 22.8674 7.45922 23.4072C7.72544 23.9373 8.0915 24.3373 8.55739 24.6072C9.02329 24.8771 9.57951 25.0121 10.2261 25.0121C10.9011 25.0121 11.4716 24.8675 11.9375 24.5783C12.4034 24.2795 12.7552 23.8409 12.9929 23.2626C13.2401 22.6843 13.3685 21.9662 13.378 21.1084V0.635612ZM42.4405 0.635612H49.486V19.7348C49.486 21.9421 48.9678 23.865 47.9314 25.5036C46.895 27.1326 45.4498 28.3953 43.5957 29.2917C41.7417 30.1784 39.5881 30.6218 37.135 30.6218C34.6534 30.6218 32.4856 30.1784 30.6315 29.2917C28.7774 28.3953 27.337 27.1326 26.3101 25.5036C25.2832 23.865 24.7698 21.9421 24.7698 19.7348V0.635612H31.8295V11.1886C32.517 10.6718 33.4524 10.2893 34.7234 10.2397C35.7814 10.1985 36.92 11.1253 38.0507 12.0457C39.0607 12.8678 40.0643 13.6848 40.9987 13.8022C41.5061 13.866 41.9916 13.7803 42.4405 13.6074V0.635612ZM138.843 11.3751H145.974C145.803 9.60156 145.361 8.02563 144.648 6.64728C143.935 5.26894 143.008 4.10747 141.867 3.16287C140.726 2.20863 139.404 1.48572 137.902 0.994145C136.4 0.492928 134.764 0.24232 132.996 0.24232C130.4 0.24232 128.056 0.830285 125.964 2.00621C123.873 3.18214 122.214 4.90266 120.987 7.16777C119.76 9.43289 119.147 12.1944 119.147 15.4523C119.147 18.7006 119.751 21.4572 120.958 23.7224C122.166 25.9875 123.811 27.7128 125.893 28.8984C127.985 30.0743 130.352 30.6623 132.996 30.6623C135.002 30.6623 136.78 30.3538 138.33 29.7369C139.889 29.1201 141.211 28.2911 142.295 27.2501C143.378 26.1995 144.229 25.0381 144.847 23.7657C145.475 22.4934 145.851 21.2018 145.974 19.8909L138.843 19.8476C138.72 20.5608 138.496 21.2018 138.173 21.7705C137.859 22.3296 137.455 22.8067 136.961 23.2019C136.476 23.5874 135.91 23.8814 135.263 24.0838C134.626 24.2862 133.918 24.3874 133.138 24.3874C131.75 24.3874 130.547 24.0549 129.53 23.3898C128.522 22.7151 127.738 21.7175 127.177 20.397C126.625 19.0668 126.35 17.4186 126.35 15.4523C126.35 13.5631 126.621 11.9534 127.162 10.6233C127.714 9.29312 128.498 8.27623 129.516 7.5726C130.543 6.86897 131.764 6.51716 133.181 6.51716C133.98 6.51716 134.707 6.63282 135.363 6.86415C136.029 7.08585 136.604 7.40874 137.089 7.83285C137.574 8.25696 137.964 8.76781 138.258 9.36541C138.553 9.96302 138.748 10.6329 138.843 11.3751ZM200.789 30.2574V0.647061H207.849V24.4452H220V30.2574H200.789ZM196.753 17.6961H196.738V20.079H192.154C191.917 21.6555 191.529 23.1038 190.991 24.424C190.027 26.7758 188.601 28.6136 186.712 29.9373C184.811 31.2482 182.459 31.9358 179.657 32V23.9227C180.963 23.8328 182.053 23.4537 182.928 22.7854C183.787 22.1066 184.439 21.2045 184.882 20.079H174.839L174.808 20.2022C174.01 23.5308 172.761 26.1589 171.062 28.0867C169.363 30.0144 167.075 30.9719 164.197 30.959C161.839 30.9719 159.779 30.3357 158.017 29.0506C156.255 27.7525 154.879 25.9726 153.891 23.7107C153.395 22.5775 153.024 21.367 152.777 20.079H148.041V12.6148H152.652C152.89 11.0541 153.303 9.62491 153.891 8.32721C154.879 6.12957 156.255 4.4203 158.017 3.19939C159.779 1.97848 161.82 1.34874 164.14 1.31019V9.31037C162.606 9.46459 161.415 10.1264 160.565 11.296C160.28 11.6885 160.043 12.1281 159.853 12.6148H169.311L169.313 12.6068C169.693 10.8847 170.2 9.30394 170.834 7.86455C171.468 6.42516 172.247 5.17855 173.173 4.12471C174.098 3.07087 175.189 2.25479 176.444 1.67646C177.699 1.08528 179.138 0.783268 180.76 0.770418C183.144 0.783268 185.21 1.40015 186.96 2.62106C188.696 3.82912 190.046 5.57695 191.01 7.86455C191.597 9.26911 192.003 10.8525 192.227 12.6148H196.738V14.5346H196.753V17.6961ZM184.965 12.6148H176.869C176.917 12.4934 176.965 12.3751 177.014 12.2598C177.432 11.2574 177.94 10.4991 178.535 9.98508C179.131 9.45816 179.867 9.1947 180.741 9.1947C181.679 9.1947 182.51 9.48386 183.232 10.0622C183.955 10.6405 184.519 11.4566 184.925 12.5104C184.938 12.545 184.952 12.5798 184.965 12.6148ZM161.402 21.6673C160.883 21.273 160.455 20.7436 160.117 20.079H167.121C167.025 20.2557 166.925 20.4253 166.821 20.5877C166.441 21.1661 165.991 21.6223 165.471 21.9564C164.952 22.2777 164.343 22.4255 163.646 22.3998C162.809 22.3998 162.061 22.1556 161.402 21.6673Z" fill="#2756F1"/>
</svg>
