<svg width="24" height="24" viewBox="0 0 24 24" fill="none" xmlns="http://www.w3.org/2000/svg">
<mask id="path-1-inside-1_2508_2079" fill="white">
<path fill-rule="evenodd" clip-rule="evenodd" d="M9 4C5.13401 4 2 7.13401 2 11C2 14.866 5.13401 18 9 18H15C15.2351 18 15.4675 17.9884 15.6966 17.9658L19.3002 19.957C19.6833 20.1245 20.0905 19.7755 19.9823 19.3723L19.5 16.369C19.4995 16.3671 19.499 16.3653 19.4985 16.3634C21.0278 15.0793 22 13.1532 22 11C22 7.13401 18.866 4 15 4H9Z"/>
</mask>
<path d="M15.6966 17.9658L16.1803 17.0905L15.908 16.94L15.5983 16.9706L15.6966 17.9658ZM19.3002 19.957L18.8165 20.8323L18.8572 20.8547L18.8997 20.8733L19.3002 19.957ZM19.9823 19.3723L18.9949 19.5309L19.0031 19.5819L19.0165 19.6317L19.9823 19.3723ZM19.5 16.369L20.4874 16.2105L20.4791 16.1593L20.4657 16.1092L19.5 16.369ZM19.4985 16.3634L18.8554 15.5976L18.3613 16.0125L18.5357 16.6337L19.4985 16.3634ZM3 11C3 7.68629 5.68629 5 9 5V3C4.58172 3 1 6.58172 1 11H3ZM9 17C5.68629 17 3 14.3137 3 11H1C1 15.4183 4.58172 19 9 19V17ZM15 17H9V19H15V17ZM15.5983 16.9706C15.4018 16.99 15.2022 17 15 17V19C15.268 19 15.5332 18.9868 15.795 18.9609L15.5983 16.9706ZM19.7839 19.0818L16.1803 17.0905L15.213 18.841L18.8165 20.8323L19.7839 19.0818ZM19.0165 19.6317C18.9058 19.2197 19.3209 18.8747 19.7007 19.0408L18.8997 20.8733C20.0458 21.3744 21.2752 20.3312 20.948 19.113L19.0165 19.6317ZM18.5126 16.5276L18.9949 19.5309L20.9696 19.2138L20.4874 16.2105L18.5126 16.5276ZM18.5357 16.6337C18.5355 16.6332 18.535 16.6314 18.5343 16.6288L20.4657 16.1092C20.4639 16.1029 20.4624 16.0973 20.4612 16.0931L18.5357 16.6337ZM21 11C21 12.8453 20.1682 14.4954 18.8554 15.5976L20.1415 17.1293C21.8874 15.6633 23 13.4611 23 11H21ZM15 5C18.3137 5 21 7.68629 21 11H23C23 6.58172 19.4183 3 15 3V5ZM9 5H15V3H9V5Z" fill="#A5A6A9" mask="url(#path-1-inside-1_2508_2079)"/>
</svg>
